<svg xmlns="http://www.w3.org/2000/svg" width="264.291" height="65.696" viewBox="0 0 264.291 65.696">
  <g id="logo" transform="translate(-205.89 -617.494)">
    <path id="Path_1" data-name="Path 1" d="M282.254,617.494A32.848,32.848,0,1,0,315.1,650.341,32.847,32.847,0,0,0,282.254,617.494Zm0,50.367a17.519,17.519,0,1,1,17.518-17.519A17.52,17.52,0,0,1,282.254,667.861Z" transform="translate(22.179)" fill="#fff"/>
    <path id="Path_2" data-name="Path 2" d="M370.287,617.494a32.848,32.848,0,1,0,32.847,32.847A32.847,32.847,0,0,0,370.287,617.494Zm0,50.367a17.519,17.519,0,1,1,17.518-17.519A17.52,17.52,0,0,1,370.287,667.861Z" transform="translate(67.046)" fill="#fff"/>
    <path id="Path_3" data-name="Path 3" d="M255.19,656.313a17.518,17.518,0,1,1,0-11.944h15.844a32.849,32.849,0,1,0,0,11.944Z" transform="translate(0)" fill="#fff"/>
    <path id="Path_4" data-name="Path 4" d="M343.223,656.313a17.518,17.518,0,1,1,0-11.944h15.844a32.849,32.849,0,1,0,0,11.944Z" transform="translate(44.867)" fill="#fff"/>
  </g>
</svg>
