<svg id="Calque_1" data-name="Calque 1" xmlns="http://www.w3.org/2000/svg" viewBox="0 0 180.1 164.31"><defs><style>.cls-1{fill:#fff;}.cls-2{fill:#46afe4;}</style></defs><title>question-white</title><path class="cls-1" d="M208.07,345.88l.29-1.47c2.35-17.55,11.2-31.58,24.59-42.72,22.17-18.43,48-25.08,76.43-22.06,22.8,2.42,42.81,11.14,58.91,27.74,14,14.43,20.86,31.85,19.14,52-1.66,19.36-10.95,35.06-25.66,47.38-21,17.59-45.59,23.63-72.51,21.68a119.31,119.31,0,0,1-19.55-3,4.24,4.24,0,0,0-3.2.38c-16.82,8.75-35,13.17-53.37,17.31l-.22.05a3.14,3.14,0,0,1-3.46-4.41l0-.05c5-11.19,9.77-22.41,11.77-34.62a15.32,15.32,0,0,0-2.8-12.24c-6.22-8.75-10.58-18.36-10.48-29.45-.16-1.18-.38-4.28-.38-4.65C207.59,357.75,207.76,346.91,208.07,345.88Z" transform="translate(-207.59 -278.93)"/><path class="cls-1" d="M233.51,422.37a78,78,0,0,0,4.76-26.95,11.81,11.81,0,0,0-3-8.14c-6.57-7.75-10.92-16.5-12.18-26.78-1.93-15.78,3-29.28,13.28-40.95C248,306.42,262.87,299,279.83,295.8c24.32-4.55,47.2-.75,67.67,13.65,13.59,9.57,22.67,22.3,24.63,39.3,1.68,14.58-2.68,27.39-12.12,38.39-12.59,14.66-29.15,22.19-47.87,25.3-14.37,2.38-28.6,1-42.6-2.73A9,9,0,0,0,261.6,411C253.19,416.44,243.67,419.29,233.51,422.37Z" transform="translate(-207.59 -278.93)"/><path class="cls-2" d="M297.75,368.47c-6.58,0-6.61,0-6.11-6.59a18.89,18.89,0,0,1,5.48-11.58c2.13-2.27,4.47-4.36,6.5-6.73,2.78-3.25,3.34-8,1.48-11.11a7.83,7.83,0,0,0-8.26-3.93c-4.27.61-7.32,3.37-7.54,7.59-.28,5.51-3.66,4.85-7.23,4.8-6.53-.09-6.58,0-5.47-6.34,3.56-20.29,25-21.6,35.25-14.08,7.5,5.54,9.6,16.36,5,25.29a38.28,38.28,0,0,1-6.24,8.36c-3.34,3.59-6.58,7.24-6.47,12.6,0,1.31-.66,1.75-1.86,1.72C300.74,368.44,299.24,368.46,297.75,368.47Z" transform="translate(-207.59 -278.93)"/><path class="cls-2" d="M305.29,383.87a7.71,7.71,0,0,1-15.41,0,7.71,7.71,0,1,1,15.41,0Z" transform="translate(-207.59 -278.93)"/></svg>