<svg id="Calque_1" data-name="Calque 1" xmlns="http://www.w3.org/2000/svg" viewBox="0 0 67 67">
<defs><style>.cls-1{fill:#0087a6;}.cls-2{fill:#fff;}</style></defs><title>email</title><circle class="cls-1" cx="33.5" cy="33.5" r="33.5"/>
<circle class="cls-1" cx="33.5" cy="33.5" r="33.5"/><path class="cls-2" d="M45.91,42.09,45.85,42l-7-6.61c-.3-.29-.92.05-1,.54l-.42,2.61A5.79,5.79,0,0,1,33.53,40l-.07,0a5.66,5.66,0,0,1-4.1-1.67L29,36.12c-.08-.5-.69-.82-1-.53l-6.6,6.22L19,44.09a.51.51,0,0,0,.35.89H47.11L47,45h.14a.72.72,0,0,0,.48-1.24Z"/>
<path class="cls-2" d="M49.39,25.09,40.71,33a.55.55,0,0,0,0,.82l8.69,8.13a.56.56,0,0,0,.94-.41v-16A.56.56,0,0,0,49.39,25.09Z"/>
<path class="cls-2" d="M32.78,35a1,1,0,0,0,1.1.17.85.85,0,0,0,.34-.2L47.37,23.52A.86.86,0,0,0,46.8,22h-26l0,0H20.2a.86.86,0,0,0-.57,1.5Z"/>
<path class="cls-2" d="M26.29,33l-8.68-7.9a.56.56,0,0,0-.94.41v16a.56.56,0,0,0,.94.41l8.69-8.13A.55.55,0,0,0,26.29,33Z"/></svg>