<svg id="Calque_1" data-name="Calque 1" xmlns="http://www.w3.org/2000/svg" viewBox="0 0 67 67"><defs><style>.cls-1{fill:#0087a6;}.cls-2{fill:#fff;}</style></defs><title>linkedin</title><circle class="cls-1" cx="33.5" cy="33.5" r="33.5"/><path class="cls-2" d="M51.82,48.61V36.09a20.59,20.59,0,0,0-.12-2.48,11.85,11.85,0,0,0-1-3.65,7.82,7.82,0,0,0-4.13-4.14,9.41,9.41,0,0,0-3.14-.69,9,9,0,0,0-3.84.56,7.58,7.58,0,0,0-3.5,2.9.92.92,0,0,1-.25.3v-3c0-.26,0-.27-.25-.27H28.4c-.26,0-.26,0-.25.26,0,1.22,0,2.43,0,3.64q0,6.5,0,13c0,1.5,0,3,0,4.49,0,.58,0,1.15,0,1.73,0,.21,0,.22.23.23h7.15c.43,0,.38,0,.38-.39V35.93a6,6,0,0,1,.16-1.52,4.24,4.24,0,0,1,4.61-3.14,3.31,3.31,0,0,1,2.82,2.05c.07.16.13.31.19.47a8.23,8.23,0,0,1,.38,2.56V48.56a1.7,1.7,0,0,1,0,.22c0,.15,0,.24.21.22h7.19C51.87,49,51.82,49,51.82,48.61Z" transform="translate(0)"/><path class="cls-2" d="M23.5,25.66H16.44a1.08,1.08,0,0,1-.18,0c-.13,0-.17.05-.16.17V48.64c0,.41,0,.36.38.36h7c.42,0,.38,0,.38-.4V26C23.85,25.62,23.89,25.66,23.5,25.66Z" transform="translate(0)"/><path class="cls-2" d="M21.86,14.75a5,5,0,0,0-2.71-.26,3.92,3.92,0,0,0-3.5,3.61,3.85,3.85,0,0,0,1.49,3.5,4.46,4.46,0,0,0,3,.88,5.5,5.5,0,0,0,.79-.07,3.91,3.91,0,0,0,3.45-4.3A3.79,3.79,0,0,0,21.86,14.75Z" transform="translate(0)"/></svg>