<svg id="Calque_1" data-name="Calque 1" xmlns="http://www.w3.org/2000/svg" viewBox="0 0 67.15 67"><defs><style>.cls-1{fill:#0087a6;}.cls-2{fill:#fff;}</style></defs><title>twitter</title><circle class="cls-1" cx="33.65" cy="33.5" r="33.5"/><circle class="cls-1" cx="33.65" cy="33.5" r="33.5"/><path class="cls-2" d="M45.91,42.09,45.85,42l-7-6.61c-.3-.29-.92.05-1,.54l-.42,2.61A5.79,5.79,0,0,1,33.53,40l-.07,0a5.66,5.66,0,0,1-4.1-1.67L29,36.12c-.08-.5-.69-.82-1-.53l-6.6,6.22L19,44.09a.51.51,0,0,0,.35.89H47.11L47,45h.14a.72.72,0,0,0,.48-1.24Z" transform="translate(0.15)"/><path class="cls-2" d="M49.39,25.09,40.71,33a.55.55,0,0,0,0,.82l8.69,8.13a.56.56,0,0,0,.94-.41v-16A.56.56,0,0,0,49.39,25.09Z" transform="translate(0.15)"/><path class="cls-2" d="M32.78,35a1,1,0,0,0,1.1.17.85.85,0,0,0,.34-.2L47.37,23.52A.86.86,0,0,0,46.8,22h-26l0,0H20.2a.86.86,0,0,0-.57,1.5Z" transform="translate(0.15)"/><path class="cls-2" d="M26.29,33l-8.68-7.9a.56.56,0,0,0-.94.41v16a.56.56,0,0,0,.94.41l8.69-8.13A.55.55,0,0,0,26.29,33Z" transform="translate(0.15)"/><circle class="cls-1" cx="33.5" cy="33.5" r="33.5"/><path class="cls-2" d="M50.49,20.32a15.29,15.29,0,0,0,4.06-1.19A10.71,10.71,0,0,1,53,21.42a4.67,4.67,0,0,1-.91,1c-1.79,1.18-2,2.9-2.12,4.89C49.21,36.37,45.49,44,37.52,48.79c-8.27,5-16.77,4.66-25.07-.3-.12-.07-.3-.1-.3-.4a17.23,17.23,0,0,0,12.44-4,8.31,8.31,0,0,1-6-2.67,9.08,9.08,0,0,1-2.13-3.74,9.15,9.15,0,0,0,3.76-.24c-4.67-2.22-7.2-5.75-6.75-9.43a10.38,10.38,0,0,0,2.78,1c.28,0,.57,0,1,.06-3.9-3.61-4.51-7.79-2.6-12.67.6.68,1.06,1.23,1.55,1.76A24.25,24.25,0,0,0,30.25,26c.69.12,1.39.16,2.09.24.43.05.55-.05.5-.55a10.53,10.53,0,0,1,1.61-7.16,8.3,8.3,0,0,1,13-1.34,1,1,0,0,0,1.09.28,20.41,20.41,0,0,0,4.12-1.66c.21-.12.44-.22.82-.41a9.26,9.26,0,0,1-3.34,4.75C50.17,20.39,50.17,20.39,50.49,20.32Z" transform="translate(0.15)"/></svg>