<?xml version="1.0" encoding="utf-8"?>
<!-- Generator: Adobe Illustrator 23.0.3, SVG Export Plug-In . SVG Version: 6.00 Build 0)  -->
<svg version="1.1" id="Calque_1" xmlns="http://www.w3.org/2000/svg" xmlns:xlink="http://www.w3.org/1999/xlink" x="0px" y="0px"
	 viewBox="0 0 264.3 65.7" style="enable-background:new 0 0 264.3 65.7;" xml:space="preserve">
<style type="text/css">
	.st0{fill:#43B1E8;}
</style>
<g id="logo" transform="translate(-205.89 -617.494)">
	<path id="Path_1" class="st0" d="M304.4,617.5c-18.1,0-32.8,14.7-32.8,32.8s14.7,32.8,32.8,32.8s32.8-14.7,32.9-32.8c0,0,0,0,0,0
		C337.3,632.2,322.6,617.5,304.4,617.5z M304.4,667.9c-9.7,0-17.5-7.8-17.5-17.5s7.8-17.5,17.5-17.5s17.5,7.8,17.5,17.5c0,0,0,0,0,0
		C322,660,314.1,667.9,304.4,667.9z"/>
	<path id="Path_2" class="st0" d="M437.3,617.5c-18.1,0-32.8,14.7-32.8,32.8c0,18.1,14.7,32.8,32.8,32.8s32.8-14.7,32.8-32.8
		c0,0,0,0,0,0C470.2,632.2,455.5,617.5,437.3,617.5z M437.3,667.9c-9.7,0-17.5-7.8-17.5-17.5s7.8-17.5,17.5-17.5s17.5,7.8,17.5,17.5
		c0,0,0,0,0,0C454.9,660,447,667.9,437.3,667.9z"/>
	<path id="Path_3" class="st0" d="M255.2,656.3c-3.3,9.1-13.3,13.8-22.4,10.5s-13.8-13.3-10.5-22.4s13.3-13.8,22.4-10.5
		c4.9,1.8,8.7,5.6,10.5,10.5H271c-3.3-17.8-20.4-29.6-38.3-26.3s-29.6,20.4-26.3,38.3s20.4,29.6,38.3,26.3
		c13.4-2.5,23.9-12.9,26.3-26.3H255.2z"/>
	<path id="Path_4" class="st0" d="M388.1,656.3c-3.3,9.1-13.3,13.8-22.4,10.5s-13.8-13.3-10.5-22.4s13.3-13.8,22.4-10.5
		c4.9,1.8,8.7,5.6,10.5,10.5h15.8c-3.3-17.8-20.4-29.6-38.3-26.3c-17.8,3.3-29.6,20.4-26.3,38.3c3.3,17.8,20.4,29.6,38.3,26.3
		c13.4-2.5,23.9-12.9,26.3-26.3H388.1z"/>
</g>
</svg>
