<svg id="Layer_1" data-name="Layer 1" xmlns="http://www.w3.org/2000/svg" viewBox="0 0 67 67"><defs><style>.cls-1{fill:#0087a6;}.cls-2{fill:#fff;fill-rule:evenodd;}</style></defs><title>github</title><circle class="cls-1" cx="33.5" cy="33.5" r="33.5"/><path class="cls-2" d="M18.7,38.52a5.94,5.94,0,0,1,2.46,2.89,5,5,0,0,0,5,3.35,15.37,15.37,0,0,0,2.31-.16s0,3.07,0,4.26c0,1.38-1.89,1.76-1.89,2.42,0,.27.62.29,1.12.29,1,0,3.06-.81,3.06-2.24,0-1.14,0-5,0-5.63a2.13,2.13,0,0,1,.8-1.92s.1,7.8-.19,8.84c-.34,1.23-.95,1.06-.95,1.61,0,.81,2.48.2,3.31-1.59.63-1.4.36-9,.36-9h.68s0,3.5,0,5.1-.14,3.76.86,4.74c.66.65,2.79,1.79,2.79.75,0-.6-1.16-1.1-1.16-2.74V41.89c.93,0,.79,2.48.79,2.48L38.21,49a2.34,2.34,0,0,0,1.85,2.38c.72.25,2.27.31,2.34-.1s-1.86-1-1.88-2.35c0-.79,0-1.25,0-4.7s-.47-4.72-2.11-5.73c5.07-.51,8.2-1.74,9.73-5a5,5,0,0,0,.55-1.54,18.2,18.2,0,0,0,.57-4.46c0-4.73-2.31-6.4-2.76-7.19.66-3.58-.11-5.21-.46-5.76-1.3-.46-4.54,1.17-6.3,2.32-2.88-.83-9-.75-11.26.21-4.21-3-6.44-2.51-6.44-2.51a8.6,8.6,0,0,0-.38,6.25c-1.39,1.74-2.42,3-2.42,6.22A14.88,14.88,0,0,0,20,31.89a12.92,12.92,0,0,0,.68,1.54c1.59,2.82,4.64,4.58,9.79,5.07a4.3,4.3,0,0,0-1.74,2.79,5.8,5.8,0,0,1-4.23.33c-2-.63-2.8-4.57-5.83-4C18,37.74,18.13,38.16,18.7,38.52Z"/></svg>